<svg xmlns="http://www.w3.org/2000/svg" viewBox="0 0 1600 1000" role="img" aria-label="Composi��o visual de geolocaliza��o">
  <defs>
    <linearGradient id="bg" x1="0" y1="0" x2="1" y2="1">
      <stop offset="0%" stop-color="#071424"/>
      <stop offset="100%" stop-color="#0c2a4a"/>
    </linearGradient>
  </defs>
  <rect width="1600" height="1000" fill="url(#bg)"/>
  <g fill="none" stroke="#3d7bff" stroke-opacity="0.28" stroke-width="2">
    <path d="M180 720 C 360 520, 520 610, 740 430 S 1100 280, 1420 360"/>
    <path d="M220 280 C 480 360, 700 220, 980 340 S 1280 520, 1480 480"/>
  </g>
  <g fill="#67e8f9">
    <circle cx="420" cy="560" r="8"/>
    <circle cx="740" cy="430" r="10"/>
    <circle cx="980" cy="340" r="8"/>
    <circle cx="1180" cy="510" r="9"/>
    <circle cx="1320" cy="390" r="7"/>
  </g>
  <g fill="#60a5fa" fill-opacity="0.35">
    <circle cx="420" cy="560" r="22"/>
    <circle cx="740" cy="430" r="26"/>
    <circle cx="1180" cy="510" r="24"/>
  </g>
  <rect x="70" y="70" width="420" height="160" rx="24" fill="#101c30" stroke="#24344d"/>
  <text x="100" y="135" fill="#f3f6fb" font-family="Segoe UI, sans-serif" font-size="28" font-weight="600">Geolocaliza��o</text>
  <text x="100" y="180" fill="#9aadc2" font-family="Segoe UI, sans-serif" font-size="20">Endere�os tratados para an�lise espacial</text>
</svg>
